<svg width="154" height="154" viewBox="0 0 154 154" fill="none" xmlns="http://www.w3.org/2000/svg">
<circle cx="77" cy="77" r="77" fill="black"/>
<g filter="url(#filter0_dd_167_80)">
<path d="M78.0049 126L38.1279 82.9936C34.9471 79.5631 32.8265 75.5748 31.7662 71.0288C30.7318 66.4827 30.7447 61.9645 31.805 57.4742C32.8653 52.956 34.9729 49.0235 38.1279 45.6767C41.3605 42.2463 45.0456 39.9732 49.1833 38.8576C53.3469 37.7141 57.4975 37.7141 61.6352 38.8576C65.7987 40.0011 69.4968 42.2741 72.7294 45.6767L78.0049 51.199L83.2805 45.6767C86.5389 42.2741 90.237 40.0011 94.3746 38.8576C98.5123 37.7141 102.65 37.7141 106.788 38.8576C110.951 39.9732 114.649 42.2463 117.882 45.6767C121.037 49.0235 123.145 52.956 124.205 57.4742C125.265 61.9645 125.265 66.4827 124.205 71.0288C123.17 75.5748 121.063 79.5631 117.882 82.9936L78.0049 126Z" fill="black" fill-opacity="0.8" style="mix-blend-mode:overlay" shape-rendering="crispEdges"/>
<path d="M32.2918 57.5884L32.2916 57.5891C31.2492 62.0039 31.2361 66.4444 32.2535 70.9165C33.2941 75.3772 35.373 79.2871 38.4946 82.6536L78.0049 125.265L117.515 82.6536C120.637 79.2873 122.702 75.378 123.717 70.9178L123.718 70.9152C124.761 66.4434 124.761 62.0034 123.718 57.5891L123.718 57.5884C122.678 53.1552 120.612 49.3018 117.518 46.0197L117.518 46.0196C114.343 42.6502 110.724 40.4299 106.658 39.3406L106.655 39.3396C102.604 38.2201 98.5584 38.2201 94.5078 39.3396C90.4655 40.4567 86.8443 42.6783 83.642 46.0221L32.2918 57.5884ZM32.2918 57.5884C33.3322 53.1552 35.3978 49.3018 38.4918 46.0197L38.4918 46.0196C41.6675 42.6496 45.2739 40.4295 49.3135 39.3404L49.3157 39.3398C53.3929 38.22 57.4517 38.2202 61.502 39.3396L61.5028 39.3398C65.5709 40.4571 69.1914 42.6786 72.3669 46.0211L72.3678 46.0221L77.6434 51.5443L78.0049 51.9228L78.3664 51.5443L83.6416 46.0225L32.2918 57.5884Z" stroke="white" stroke-opacity="0.4" shape-rendering="crispEdges"/>
</g>
<defs>
<filter id="filter0_dd_167_80" x="19" y="26" width="118" height="115" filterUnits="userSpaceOnUse" color-interpolation-filters="sRGB">
<feFlood flood-opacity="0" result="BackgroundImageFix"/>
<feColorMatrix in="SourceAlpha" type="matrix" values="0 0 0 0 0 0 0 0 0 0 0 0 0 0 0 0 0 0 127 0" result="hardAlpha"/>
<feOffset dx="-4" dy="-4"/>
<feGaussianBlur stdDeviation="4"/>
<feComposite in2="hardAlpha" operator="out"/>
<feColorMatrix type="matrix" values="0 0 0 0 0.839216 0 0 0 0 0.839216 0 0 0 0 0.839216 0 0 0 0.8 0"/>
<feBlend mode="normal" in2="BackgroundImageFix" result="effect1_dropShadow_167_80"/>
<feColorMatrix in="SourceAlpha" type="matrix" values="0 0 0 0 0 0 0 0 0 0 0 0 0 0 0 0 0 0 127 0" result="hardAlpha"/>
<feOffset dx="2" dy="5"/>
<feGaussianBlur stdDeviation="5"/>
<feComposite in2="hardAlpha" operator="out"/>
<feColorMatrix type="matrix" values="0 0 0 0 1 0 0 0 0 1 0 0 0 0 1 0 0 0 0.5 0"/>
<feBlend mode="normal" in2="effect1_dropShadow_167_80" result="effect2_dropShadow_167_80"/>
<feBlend mode="normal" in="SourceGraphic" in2="effect2_dropShadow_167_80" result="shape"/>
</filter>
</defs>
</svg>
